<svg xmlns="http://www.w3.org/2000/svg" xmlns:xlink="http://www.w3.org/1999/xlink" width="12" height="15" viewBox="0 0 11.995819091796875 15.0350341796875" fill="none"><path d="M6.07174 0C2.73726 0 0 2.84205 0 6.35586C0 7.13096 0.248842 7.95774 0.646988 8.88787C1.0949 9.81799 1.74189 10.7998 2.48842 11.8333C3.03587 12.505 3.63309 13.1768 4.18054 13.7969C4.37961 14.0036 4.57869 14.2102 4.72799 14.3653C4.82753 14.4686 4.92706 14.5203 4.92706 14.572C5.52428 15.192 6.51965 15.192 7.0671 14.572C7.11687 14.5203 7.16664 14.4686 7.26618 14.3653C7.41548 14.2102 7.61455 14.0036 7.81363 13.7969C8.41085 13.1768 8.9583 12.505 9.50575 11.8333C10.302 10.8515 10.949 9.81799 11.3472 8.88787C11.7951 7.95774 11.9942 7.13096 11.9942 6.35586C12.1435 2.84205 9.40621 0 6.07174 0ZM10.7997 8.52615C10.4016 9.4046 9.80436 10.3347 9.00807 11.3165C8.46062 11.9883 7.91316 12.66 7.36571 13.2285C7.16664 13.4351 6.96757 13.6418 6.81826 13.7969C6.71872 13.9002 6.66896 13.9519 6.61919 14.0036C6.32058 14.3136 5.82289 14.3136 5.52428 14.0036C5.47452 13.9519 5.42475 13.9002 5.32521 13.7969C5.17591 13.6418 4.97683 13.4351 4.77776 13.2285C4.23031 12.6084 3.63309 11.9883 3.1354 11.3165C2.38888 10.3347 1.79166 9.4046 1.34374 8.52615C0.945598 7.69937 0.746525 6.97594 0.746525 6.35586C0.746525 3.25544 3.1354 0.775105 6.07174 0.775105C9.00807 0.775105 11.3969 3.25544 11.3969 6.35586C11.3969 6.97594 11.1979 7.69937 10.7997 8.52615ZM6.07174 3.46213C4.57869 3.46213 3.43401 4.7023 3.43401 6.25251C3.43401 7.80272 4.62845 9.04289 6.07174 9.04289C7.51502 9.04289 8.70946 7.80272 8.70946 6.25251C8.70946 4.7023 7.56479 3.46213 6.07174 3.46213ZM6.07174 8.21611C5.0266 8.21611 4.18054 7.33766 4.18054 6.20084C4.18054 5.06402 5.0266 4.18556 6.07174 4.18556C7.11687 4.18556 7.96293 5.06402 7.96293 6.20084C7.96293 7.33766 7.11687 8.21611 6.07174 8.21611Z" fill-rule="evenodd" fill="#FFFFFF" ></path></svg>
