<svg xmlns="http://www.w3.org/2000/svg" xmlns:xlink="http://www.w3.org/1999/xlink" width="28" height="28" viewBox="0 0 28 28" fill="none"><path d="M17.3687 22.3125L11.0687 22.3125C9.97499 22.3125 8.96875 21.7438 8.4 20.7813L5.25 15.3563C4.725 14.3938 4.725 13.2563 5.25 12.2938L8.4 6.86877C8.96875 5.90627 9.97499 5.33752 11.0687 5.33752L17.3687 5.33752C17.85 5.33752 18.2437 5.73127 18.2437 6.21252C18.2437 6.69377 17.85 7.08752 17.3687 7.08752L11.0687 7.08752C10.5875 7.08752 10.15 7.35002 9.93125 7.74377L6.78125 13.1688C6.5625 13.5625 6.5625 14.0875 6.78125 14.4813L9.93125 19.95C10.15 20.3438 10.5875 20.6063 11.0687 20.6063L17.3687 20.6063C17.85 20.6063 18.2875 20.3438 18.5062 19.95L21.6562 14.4813C21.875 14.0875 21.875 13.5625 21.6562 13.1688L19.25 9.01252C18.9875 8.61877 19.1187 8.05002 19.5125 7.78752C19.9062 7.52502 20.475 7.65627 20.7375 8.05002L20.7812 8.09377L23.1875 12.25C23.7562 13.2125 23.7562 14.35 23.1875 15.3125L20.0375 20.7375C19.4687 21.7438 18.4625 22.3125 17.3687 22.3125Z"   fill="#4D716F" ></path><path   fill-rule="evenodd"  fill="#4D716F"  d="M14.2188 16.8875C12.5125 16.8875 11.1562 15.5313 11.1562 13.825C11.1562 12.1188 12.5125 10.7625 14.2188 10.7625C15.925 10.7625 17.2812 12.1188 17.2812 13.825C17.2812 15.5313 15.925 16.8875 14.2188 16.8875ZM14.2188 11.5938C12.9937 11.5938 12.0312 12.5563 12.0312 13.7813C12.0312 15.0063 12.9937 15.9688 14.2188 15.9688C15.4437 15.9688 16.4062 15.0063 16.4062 13.7813C16.4062 12.5563 15.4437 11.5938 14.2188 11.5938Z"></path></svg>
