<svg xmlns="http://www.w3.org/2000/svg" xmlns:xlink="http://www.w3.org/1999/xlink" width="18" height="18" viewBox="0 0 18 18" fill="none"><path   fill-rule="evenodd"  fill="#FFFFFF"  d="M16.7482 6.20161C16.7482 6.19254 16.7452 6.18649 16.7452 6.17742C16.7391 6.14416 16.73 6.11392 16.7179 6.08368L15.3966 2.79996C15.1668 2.11963 14.5137 1.70236 13.7457 1.69934L4.49016 1.69934C3.71307 1.69934 3.10834 2.11359 2.89063 2.7667L1.47252 6.11695C1.46648 6.13811 1.4574 6.16532 1.45136 6.19556C1.34855 6.51305 1.29715 6.83658 1.29715 7.16314C1.29715 8.30912 1.92608 9.35531 2.93599 9.89353L2.93599 9.89353L2.93599 9.89353L2.93599 9.89353C3.35023 10.1143 3.84007 10.2261 4.39038 10.2261C5.3126 10.2231 6.16831 9.81794 6.75188 9.12249C7.33243 9.81189 8.17906 10.214 9.10128 10.2201C10.0144 10.214 10.8611 9.80886 11.4386 9.11946C12.0222 9.81491 12.8779 10.2171 13.8061 10.2171C14.3685 10.214 14.8644 10.0961 15.2847 9.86631C16.2795 9.32205 16.8963 8.2819 16.8963 7.14802C16.8994 6.82449 16.8449 6.49793 16.7482 6.20161ZM14.7495 8.88362C14.4955 9.02271 14.1781 9.09528 13.8061 9.09528C13.1198 9.09528 12.4969 8.74755 12.131 8.15793C12.1038 8.10351 12.0615 8.00977 11.9798 7.92209C11.8861 7.81928 11.7198 7.69531 11.4416 7.69531C11.2179 7.69531 11.0153 7.78602 10.9004 7.92813C10.8248 8.0128 10.7825 8.09746 10.7522 8.16096C10.3924 8.74453 9.77254 9.09528 9.10128 9.0983C8.42095 9.09528 7.8011 8.74453 7.43825 8.15793C7.41407 8.10653 7.37173 8.01884 7.30521 7.94627C7.04215 7.63181 6.44951 7.64693 6.21971 7.92209C6.13505 8.01582 6.08969 8.10955 6.06248 8.17305C5.69964 8.75662 5.07373 9.10435 4.3934 9.10737C4.03056 9.10737 3.71912 9.03783 3.46816 8.90478L3.46816 8.90478C2.82411 8.56311 2.42498 7.89487 2.42498 7.16616C2.42498 6.95148 2.46127 6.73378 2.53384 6.52212C2.53988 6.507 2.54291 6.48886 2.54593 6.47374L3.94287 3.17188C3.97009 3.08721 4.05777 2.8302 4.49319 2.8302L13.7517 2.8302C13.9301 2.84229 14.2385 2.87253 14.3474 3.19304L15.6536 6.44955C15.6597 6.47374 15.6657 6.49491 15.6718 6.51305C15.7443 6.72471 15.7806 6.93939 15.7806 7.15407C15.7746 7.87371 15.3815 8.53589 14.7495 8.88362Z"></path><path d="M15.1698 10.6857C14.8584 10.6857 14.6074 10.9367 14.6074 11.2481L14.6074 14.3172C14.6074 14.4925 14.4653 14.6347 14.2899 14.6347L3.70704 14.6407C3.53167 14.6407 3.38955 14.4986 3.38955 14.3262L3.38653 11.3116C3.38653 11.0002 3.13254 10.7492 2.82412 10.7492L2.82412 10.7492C2.51268 10.7492 2.26172 11.0032 2.26172 11.3116L2.26474 14.3262C2.26474 15.1185 2.91181 15.7655 3.70704 15.7655L14.293 15.7595C15.0852 15.7565 15.7322 15.1124 15.7322 14.3172L15.7322 11.2481C15.7322 10.9397 15.4813 10.6857 15.1698 10.6857Z"   fill="#FFFFFF" ></path><path d="M13.5007 6.7489L4.49923 6.7489C4.18779 6.7489 3.93683 6.49793 3.93683 6.18649C3.93683 5.87505 4.18779 5.62408 4.49923 5.62408L13.4977 5.62408C13.8092 5.62408 14.0601 5.87505 14.0601 6.18649C14.0632 6.49793 13.8092 6.7489 13.5007 6.7489Z"   fill="#FFFFFF" ></path></svg>
